<?xml version="1.0" standalone="no"?>
<!DOCTYPE svg PUBLIC "-//W3C//DTD SVG 20010904//EN"
 "http://www.w3.org/TR/2001/REC-SVG-20010904/DTD/svg10.dtd">
<svg version="1.0" xmlns="http://www.w3.org/2000/svg"
 width="1158.000000pt" height="422.000000pt" viewBox="0 0 1158.000000 422.000000"
 preserveAspectRatio="xMidYMid meet">

<g transform="translate(0.000000,422.000000) scale(0.100000,-0.100000)"
fill="#FFFFFF" stroke="none">
<path d="M2047 4000 c-276 -25 -537 -105 -767 -237 -151 -85 -241 -154 -374
-282 -380 -369 -566 -819 -566 -1364 1 -391 102 -729 315 -1048 274 -410 647
-683 1088 -799 177 -47 301 -62 502 -62 533 0 977 192 1350 583 508 533 679
1258 454 1923 -235 693 -799 1171 -1502 1271 -132 19 -375 26 -500 15z m434
-145 c283 -33 516 -118 749 -273 379 -252 646 -654 747 -1124 23 -109 26 -147
27 -328 1 -229 -16 -343 -76 -522 -60 -180 -172 -402 -252 -503 l-24 -29 -123
38 c-292 89 -526 189 -603 257 -39 35 -46 48 -60 109 -20 86 -20 133 -1 285 8
66 17 155 21 198 l6 77 32 0 c85 0 138 86 163 265 30 223 -17 419 -108 443
l-31 7 1 190 c2 262 -25 411 -102 560 -51 100 -87 130 -251 210 -201 97 -291
115 -479 95 -153 -17 -273 -53 -422 -127 -115 -57 -165 -116 -224 -264 -44
-113 -52 -172 -41 -312 5 -67 12 -175 16 -239 6 -117 6 -118 -17 -127 -64 -24
-89 -104 -89 -280 0 -142 11 -228 40 -304 30 -80 57 -107 119 -121 l54 -12 49
-139 c73 -208 78 -224 78 -272 0 -44 -38 -125 -80 -170 -83 -90 -299 -181
-658 -278 -74 -20 -140 -39 -147 -42 -16 -6 -47 42 -126 192 -222 427 -261
909 -109 1366 159 480 532 881 987 1063 146 58 302 95 508 119 80 10 313 5
426 -8z m-426 -601 c38 -9 90 -27 114 -41 l43 -25 42 20 c96 47 186 67 306 67
108 0 118 -2 162 -28 100 -59 121 -117 144 -412 34 -422 -7 -761 -103 -852
-49 -47 -72 -43 -146 25 -74 66 -125 87 -249 104 -84 12 -113 30 -55 35 14 1
35 7 46 13 25 13 38 57 22 73 -8 8 -11 6 -11 -10 0 -48 -23 -71 -33 -33 -8 30
-26 24 -68 -20 -46 -48 -84 -53 -133 -15 -18 14 -43 25 -55 25 -21 0 -21 -1
-7 -16 9 -9 29 -19 44 -24 l27 -7 -25 -6 c-14 -2 -61 -11 -105 -20 -103 -19
-158 -45 -236 -113 -34 -30 -70 -54 -79 -54 -52 0 -113 134 -147 320 -25 140
-26 657 -1 747 33 120 90 207 153 237 80 38 205 42 350 10z m951 -571 c68 -90
63 -426 -9 -555 -19 -35 -24 -38 -65 -38 l-45 0 7 98 c3 53 11 191 16 306 6
115 13 212 15 217 8 12 66 -8 81 -28z m-1516 10 c1 -5 3 -64 6 -133 2 -69 9
-172 15 -230 5 -58 13 -138 16 -177 l6 -73 -30 0 c-40 0 -66 31 -94 110 -19
53 -23 93 -27 218 -6 211 16 292 78 292 17 0 30 -3 30 -7z m840 -523 c0 -5 -2
-10 -4 -10 -3 0 -8 5 -11 10 -3 6 -1 10 4 10 6 0 11 -4 11 -10z m35 -200 c169
-15 195 -28 195 -102 0 -41 -45 -116 -88 -146 -97 -69 -384 -66 -487 6 -73 51
-137 160 -119 205 7 18 46 35 94 40 75 8 291 6 405 -3z m445 -316 c0 -69 -115
-240 -254 -379 -111 -110 -321 -265 -360 -265 -50 0 -271 206 -357 331 -43 64
-109 208 -109 242 0 27 15 20 32 -17 9 -19 44 -63 78 -100 96 -102 195 -139
369 -138 118 1 204 21 290 69 71 39 187 145 251 228 47 61 60 67 60 29z m-937
-425 c73 -85 162 -168 224 -207 24 -15 42 -31 40 -36 -2 -5 -21 -16 -43 -24
-29 -11 -93 -15 -254 -16 l-215 -1 0 220 1 220 34 73 33 74 59 -115 c36 -71
82 -142 121 -188z m956 244 c17 -86 13 -140 -23 -358 l-33 -200 -164 1 c-135
1 -180 5 -254 24 -125 31 -127 32 -74 65 73 46 220 159 286 219 73 67 174 190
212 258 14 26 29 48 32 48 3 0 11 -26 18 -57z m-559 -547 c41 -13 108 -30 148
-37 39 -7 72 -16 72 -19 0 -3 -28 -12 -62 -19 -69 -14 -134 -38 -126 -47 5 -4
87 12 182 38 55 14 270 37 278 29 13 -13 -107 -453 -133 -487 -9 -11 -26 -14
-179 -35 -114 -15 -361 -12 -480 6 -122 18 -260 53 -276 69 -21 20 -74 338
-74 446 l0 35 167 0 c93 0 197 3 232 8 l65 7 -26 -27 c-67 -72 -94 -206 -67
-335 6 -29 14 -56 18 -60 3 -4 6 48 6 115 1 112 3 127 29 184 28 62 111 153
138 153 7 0 47 -11 88 -24z"/>
<path d="M1640 2808 c-14 -8 -26 -23 -28 -35 -4 -27 40 -43 121 -43 33 0 104
-7 158 -16 121 -19 172 -16 177 10 2 10 0 22 -5 27 -12 12 -245 57 -330 64
-47 4 -76 2 -93 -7z"/>
<path d="M2505 2793 c-71 -14 -137 -28 -145 -33 -8 -4 -16 -19 -18 -34 -3 -25
-1 -26 40 -26 24 0 102 9 173 20 72 11 151 20 176 20 50 0 73 17 63 44 -17 43
-96 46 -289 9z"/>
<path d="M1805 2653 c-38 -9 -115 -46 -115 -54 0 -14 23 -10 44 6 26 20 128
19 218 -1 48 -11 73 -13 80 -6 18 18 1 40 -39 51 -38 11 -150 13 -188 4z"/>
<path d="M2398 2648 c-35 -9 -54 -30 -42 -49 8 -13 34 -11 104 7 62 16 171 15
218 -1 44 -15 20 11 -31 33 -41 17 -69 22 -132 21 -44 -1 -97 -5 -117 -11z"/>
<path d="M1748 2582 c-36 -10 -58 -22 -58 -30 0 -10 8 -13 25 -10 15 3 25 1
25 -7 0 -15 64 -45 96 -45 14 0 38 7 54 15 17 9 30 12 30 9 0 -4 9 1 20 11 16
14 22 15 34 5 9 -6 18 -20 21 -31 8 -25 25 -25 25 0 0 23 -49 63 -103 86 -44
18 -93 17 -169 -3z"/>
<path d="M2480 2585 c-47 -22 -90 -64 -90 -89 1 -18 4 -17 28 12 32 39 40 39
88 7 20 -14 44 -25 54 -25 24 0 80 20 109 39 14 9 34 14 44 13 12 -2 18 1 15
10 -12 36 -188 60 -248 33z"/>
<path d="M1995 2227 c-6 -23 -3 -34 14 -50 25 -25 27 -12 6 43 l-13 35 -7 -28z"/>
<path d="M2143 1880 c-101 -15 -105 -27 -34 -93 88 -83 169 -87 246 -13 57 54
59 82 8 95 -58 15 -162 20 -220 11z"/>
<path d="M4710 2615 l0 -135 210 0 210 0 -2 -590 -3 -590 143 0 142 0 0 590 0
590 190 0 190 0 0 135 0 135 -540 0 -540 0 0 -135z"/>
<path d="M9502 2208 c3 -521 4 -545 25 -605 29 -88 65 -144 124 -197 109 -98
250 -142 434 -133 61 3 131 12 156 20 174 56 290 176 336 348 14 56 17 133 20
587 l3 523 -143 -3 -142 -3 -5 -530 c-6 -592 -1 -558 -79 -628 -57 -52 -131
-72 -217 -58 -112 17 -186 78 -213 177 -7 26 -11 211 -11 542 l0 502 -146 0
-145 0 3 -542z"/>
<path d="M10850 2025 l0 -725 140 0 140 0 0 725 0 725 -140 0 -140 0 0 -725z"/>
<path d="M7310 2334 c-100 -22 -184 -68 -260 -143 -106 -105 -150 -220 -150
-391 0 -162 45 -285 140 -380 68 -67 135 -104 236 -130 148 -38 356 -19 468
43 l41 22 1 133 c0 72 -1 132 -4 132 -2 0 -21 -15 -42 -34 -59 -53 -139 -79
-245 -80 -70 0 -100 5 -136 21 -65 29 -111 73 -143 137 -24 47 -29 69 -29 139
-1 45 4 101 11 124 29 99 124 174 239 189 118 14 268 -33 316 -100 l22 -31 7
50 c3 28 7 92 7 142 l1 93 -50 25 c-103 52 -290 69 -430 39z"/>
<path d="M5832 1913 l3 -398 33 -67 c36 -75 72 -110 152 -147 49 -23 67 -26
170 -26 103 0 121 3 170 26 31 14 73 41 93 59 l37 32 0 -46 0 -46 125 0 125 0
0 505 0 505 -137 0 -138 0 0 -328 c0 -371 -1 -377 -79 -434 -38 -27 -47 -29
-108 -26 -80 4 -113 24 -145 88 -22 43 -23 52 -23 372 l0 328 -141 0 -140 0 3
-397z"/>
<path d="M7960 1958 c0 -447 11 -509 107 -599 72 -69 158 -94 293 -87 99 6
171 33 233 88 l37 32 0 -46 0 -46 130 0 130 0 0 505 0 505 -145 0 -145 0 0
-332 c0 -326 -1 -334 -23 -372 -37 -66 -67 -81 -157 -81 -93 0 -122 16 -157
85 -22 43 -23 52 -23 372 l0 328 -140 0 -140 0 0 -352z"/>
</g>
</svg>
